<?xml version="1.0" standalone="no"?>
<!DOCTYPE svg PUBLIC "-//W3C//DTD SVG 20010904//EN"
 "http://www.w3.org/TR/2001/REC-SVG-20010904/DTD/svg10.dtd">
<svg version="1.0" xmlns="http://www.w3.org/2000/svg"
 width="512.000000pt" height="512.000000pt" viewBox="0 0 512.000000 512.000000"
 preserveAspectRatio="xMidYMid meet">

<g transform="translate(0.000000,512.000000) scale(0.100000,-0.100000)"
fill="#000000" stroke="none">
<path d="M471 5101 c-11 -11 -23 -35 -26 -53 -3 -18 -4 -1004 -3 -2191 l3
-2159 24 -19 c20 -17 40 -19 162 -19 l139 0 0 -139 c0 -191 -6 -185 179 -189
l141 -4 0 -139 c0 -135 1 -141 25 -164 l24 -25 1744 0 c1728 0 1743 0 1765 20
11 11 24 35 27 52 3 18 5 214 3 435 -3 399 -3 403 -25 424 -27 27 -75 29 -103
4 -19 -18 -20 -30 -20 -402 l0 -383 -1645 0 -1645 0 0 90 0 90 1536 2 1536 3
19 24 c18 22 19 48 19 691 l0 669 -26 20 c-33 26 -65 27 -95 2 l-24 -19 -3
-621 -2 -621 -1640 0 -1640 0 0 90 0 90 1534 0 1535 0 20 26 c21 27 21 32 21
841 l0 814 -25 24 c-31 32 -69 32 -100 0 l-25 -24 0 -766 0 -765 -1645 0
-1645 0 0 2080 0 2080 1645 0 1645 0 0 -1165 0 -1166 25 -24 c31 -32 69 -32
100 0 l25 24 0 1006 0 1005 85 0 85 0 2 -1326 3 -1326 24 -19 c30 -25 62 -24
95 2 l26 20 0 1155 0 1154 90 0 90 0 0 -1555 c0 -1542 0 -1555 20 -1575 25
-25 71 -26 101 -1 l24 19 0 1612 0 1612 -24 19 c-20 17 -40 19 -162 19 l-139
0 0 144 c0 197 7 190 -179 194 l-141 4 0 134 c0 130 -1 136 -25 159 l-24 25
-1746 0 c-1715 0 -1745 0 -1764 -19z"/>
<path d="M873 4730 c-12 -5 -26 -18 -32 -29 -8 -13 -11 -250 -11 -741 l0 -721
25 -24 24 -25 521 0 c562 0 570 1 584 52 12 45 7 1425 -5 1452 -7 14 -25 30
-42 36 -37 12 -1032 13 -1064 0z m967 -765 l0 -625 -430 0 -430 0 0 625 0 625
430 0 430 0 0 -625z"/>
<path d="M2254 4730 c-49 -20 -54 -42 -54 -237 0 -194 6 -223 47 -242 17 -8
221 -11 683 -11 l659 0 28 24 28 24 0 201 c0 195 -1 201 -23 223 l-23 23 -662
2 c-364 1 -672 -2 -683 -7z m1241 -240 l0 -95 -572 -3 -573 -2 0 93 c0 52 3
97 7 100 3 4 261 6 572 5 l566 -3 0 -95z"/>
<path d="M2231 4013 c-11 -10 -24 -32 -27 -50 -5 -26 -1 -37 19 -57 l26 -26
676 0 c662 0 675 0 695 20 30 30 27 83 -6 109 -26 21 -34 21 -694 21 -621 0
-669 -1 -689 -17z"/>
<path d="M2254 3700 c-26 -10 -54 -48 -54 -71 0 -9 9 -28 21 -43 l20 -26 683
0 c649 0 684 1 699 18 24 27 22 85 -4 108 -20 18 -48 19 -683 21 -363 1 -671
-2 -682 -7z"/>
<path d="M2225 3315 c-14 -13 -25 -31 -25 -39 0 -28 22 -64 47 -75 17 -8 221
-11 682 -11 651 0 659 0 685 21 33 26 36 79 6 109 -20 20 -33 20 -695 20
l-676 0 -24 -25z"/>
<path d="M855 2955 c-32 -31 -33 -74 -2 -103 23 -21 31 -22 253 -22 228 0 231
0 252 23 31 33 29 80 -4 106 -25 20 -39 21 -251 21 l-224 0 -24 -25z"/>
<path d="M1626 2959 c-33 -26 -36 -79 -6 -109 20 -20 33 -20 1000 -20 967 0
980 0 1000 20 30 30 27 83 -6 109 -27 21 -31 21 -994 21 -963 0 -967 0 -994
-21z"/>
<path d="M850 2590 c-38 -38 -22 -100 31 -119 42 -15 406 -15 448 0 53 19 69
81 31 119 -19 19 -33 20 -255 20 -222 0 -236 -1 -255 -20z"/>
<path d="M1616 2588 c-23 -32 -20 -81 5 -104 20 -18 51 -19 999 -19 948 0 979
1 999 19 27 25 29 86 3 109 -17 16 -101 17 -1005 17 l-986 0 -15 -22z"/>
<path d="M852 2227 c-29 -31 -28 -72 3 -102 l24 -25 224 0 c212 0 226 1 251
21 34 27 36 77 3 107 -23 21 -31 22 -253 22 -228 0 -231 0 -252 -23z"/>
<path d="M1622 2230 c-32 -30 -30 -82 4 -109 27 -21 31 -21 994 -21 963 0 967
0 994 21 33 26 36 79 6 109 -20 20 -33 20 -998 20 -971 0 -978 0 -1000 -20z"/>
<path d="M873 1880 c-46 -19 -57 -83 -20 -118 23 -21 31 -22 253 -22 228 0
231 0 252 23 29 31 28 72 -3 102 l-24 25 -218 -1 c-120 0 -228 -4 -240 -9z"/>
<path d="M1626 1869 c-33 -26 -36 -79 -6 -109 20 -20 33 -20 1000 -20 967 0
980 0 1000 20 30 30 27 83 -6 109 -27 21 -31 21 -994 21 -963 0 -967 0 -994
-21z"/>
<path d="M850 1500 c-25 -25 -26 -71 -1 -101 19 -24 19 -24 256 -24 237 0 237
0 256 24 25 30 24 76 -1 101 -19 19 -33 20 -255 20 -222 0 -236 -1 -255 -20z"/>
<path d="M1620 1500 c-27 -27 -26 -81 1 -106 20 -18 51 -19 999 -19 948 0 979
1 999 19 14 13 21 31 21 57 0 74 71 69 -1022 69 -965 0 -978 0 -998 -20z"/>
</g>
</svg>
